<svg xmlns="http://www.w3.org/2000/svg" width="192" height="41" viewBox="0 0 192 41">
  <defs>
    <style>
      .cls-1 {
        fill: #40060b;
        fill-rule: evenodd;
      }
    </style>
  </defs>
  <path class="cls-1" d="M68.558,22.5c0,2.459-1.419,4.453-4.059,4.453s-4.06-1.994-4.06-4.453v-4c0-2.46,1.419-4.453,4.06-4.453s4.06,1.993,4.06,4.453v4ZM64.5,10.738c-5.018,0-7.714,3.308-7.714,7.39v4.744c0,4.082,2.7,7.39,7.714,7.39s7.713-3.308,7.713-7.39V18.128c0-4.082-2.7-7.39-7.713-7.39M138.147,22.5c0,2.459-1.419,4.453-4.06,4.453s-4.059-1.994-4.059-4.453v-4c0-2.46,1.418-4.453,4.059-4.453s4.06,1.993,4.06,4.453v4Zm-4.06-11.762c-5.017,0-7.713,3.308-7.713,7.39v4.744c0,4.082,2.7,7.39,7.713,7.39s7.714-3.308,7.714-7.39V18.128c0-4.082-2.7-7.39-7.714-7.39m28.1,11.473c0,2.559-1.312,4.453-4.059,4.453h-2.9V14.337h2.895c2.748,0,4.06,1.894,4.06,4.454v3.42Zm-4.37-11.184h-6.239V29.973h6.239c5.431,0,8.024-3.143,8.024-7.39V18.416c0-4.247-2.593-7.39-8.024-7.39M86.172,26.663V11.027H82.518V29.973H94.213V26.663H86.172ZM109,19.94v2.241h4.477V22.5c0,2.459-1.419,4.453-4.06,4.453s-4.06-1.994-4.06-4.453v-4c0-2.46,1.419-4.453,4.06-4.453,2.506,0,3.661,1.228,3.954,3.388h3.586c-0.293-3.878-2.656-6.7-7.54-6.7-5.017,0-7.713,3.309-7.713,7.39v4.744c0,4.081,2.7,7.39,7.713,7.39s7.714-3.309,7.714-7.39V19.94H109Zm63.8,10.033h3.941L182.4,15.719l5.654,14.254H192l-7.7-18.946h-3.8ZM11.455,0H7.081V18.457h4.374V0ZM4.374,0H0V18.457H4.374V0ZM18.537,0H14.163V18.457h4.374V0Zm4.028,15.387,3.084,3.071,3.085-3.071-3.085-3.071Zm12.367,0,3.084,3.071L41.1,15.386l-3.085-3.071Zm-6.2,0,3.084,3.071L34.9,15.386l-3.085-3.071Zm0-12.315L25.649,0,22.564,3.071l3.085,3.071Zm12.367,0L38.016,0,34.931,3.071l3.085,3.071Zm-6.2,0L31.818,0,28.733,3.071l3.085,3.071ZM31.847,9.229L34.931,12.3l3.085-3.071L34.931,6.157Zm-0.03,0L28.733,6.157,25.648,9.229,28.733,12.3ZM41.1,12.3V6.157L38.016,9.229ZM22.564,6.157V12.3l3.084-3.072ZM18.536,34.151l-3.819-3.19-5.448,4.55L3.82,30.962,0,34.151V39.64L3.82,36.45,9.268,41l5.448-4.55,3.819,3.189V34.151ZM0,31.12L3.82,27.93l5.448,4.55,5.449-4.55,3.819,3.189V25.631l-3.819-3.19L9.268,26.992,3.82,22.441,0,25.631V31.12Zm33.846-2.73,2.531-2.52-3.341-3.328H27.974ZM36,22.542l5.1,5.081V22.582l-0.04-.04H36Zm5,15.852-2.531,2.52L38.557,41H41.1V38.492ZM22.645,25.155l2.531-2.52-0.093-.093H22.564v2.533Zm5,15.845-5.078-5.057v5.041L22.58,41h5.062Zm2.176-5.788-2.531,2.52L30.568,41H35.63Zm7.971-7.937-2.531,2.52L41.1,35.612v-5.04ZM25.876,36.327l2.531-2.52-5.842-5.818V33.03Zm11.236,3.234,2.531-2.52L26.536,23.989l-2.531,2.52Z"/>
</svg>
