<?xml version="1.0" encoding="utf-8"?>
<!-- Generator: Adobe Illustrator 16.0.0, SVG Export Plug-In . SVG Version: 6.00 Build 0)  -->
<!DOCTYPE svg PUBLIC "-//W3C//DTD SVG 1.1//EN" "http://www.w3.org/Graphics/SVG/1.1/DTD/svg11.dtd">
<svg version="1.1" id="레이어_1" xmlns="http://www.w3.org/2000/svg" xmlns:xlink="http://www.w3.org/1999/xlink" x="0px"
	 y="0px" width="796.594px" height="110.81px" viewBox="0 0 796.594 110.81" enable-background="new 0 0 796.594 110.81"
	 xml:space="preserve">
<path fill="#14008B" d="M2.445,55.406C2.445,36.499,1.572,17.744,0,0h118.799l-0.883,21.89H29.351v21.712h82.914v20.476H29.351
	v24.842h88.565l0.883,21.867v0.023H0C1.572,93.063,2.445,74.311,2.445,55.406"/>
<path fill="#14008B" d="M168.983,110.81V78.543c-0.002-23.927,18.688-38.541,37.393-38.541c18.181,0,26.333,10.418,26.333,31.237
	v39.57h26.756V77.075c0-28.359,18.784-37.073,35.133-37.073c18.419,0,25.924,10.778,25.924,30.881v39.927h26.758V67.188
	c0-25.143-11.495-49.974-46.903-49.974c-23.875,0-38.728,8.054-48.655,24.623c-5.105-16.915-19.165-24.623-38.039-24.623
	c-21.002,0-35.398,8.94-44.7,22.055V21.889h-28.579c0.991,11.923,1.849,27.023,1.849,44.46c0,17.438-0.858,32.538-1.849,44.461
	H168.983z"/>
<path fill="#14008B" d="M433.207,17.215c-38.549,0-67.429,17.765-67.429,48.3c0,30.537,28.88,48.299,67.429,48.299
	c38.39-0.001,67.429-17.762,67.429-48.299C500.636,34.98,471.597,17.215,433.207,17.215 M433.204,92.567
	c-25.523,0-41.375-10.703-41.375-27.052c0-16.35,15.852-27.051,41.375-27.051c25.369,0,41.222,10.701,41.222,27.051
	C474.426,81.864,458.573,92.567,433.204,92.567"/>
<path fill="#14008B" d="M767.585,57.747c-8.236-1.451-18.517-2.537-28.258-2.964c-8.077-0.355-15.702-0.846-21.891-1.452
	c-5.172-0.505-19.926-1.222-18.63-8.593c1.41-8.036,23.719-9.052,41.801-7.558c18.285,1.51,31.509,5.182,43.318,12.192l8.44-17.694
	c-13.182-8.524-36.846-14.591-59.041-14.591c-49.087,0-60.098,15.259-60.098,28.061c0,13.662,9.255,22.169,28.987,25.973
	c9.235,1.779,20.211,2.807,34.065,3.323c7.493,0.28,14.979,0.779,20.632,1.599c5.517,0.797,7.781,1.391,10.374,2.615
	c2.286,1.08,4.109,3.14,3.862,5.893c-0.427,4.846-8.783,10.14-38.443,8.515c-21.051-1.156-40.508-6.677-53.969-16.149l-9.938,19.172
	c11.81,7.527,31.56,15.909,63.292,17.384c3.09,0.142,6.068,0.214,8.948,0.214c47.729,0,55.556-17.969,55.556-30.888
	C796.594,69.708,784.938,60.808,767.585,57.747"/>
<path fill="#14008B" d="M518.196,110.81c0.994-11.924,1.853-27.022,1.853-44.461c-0.002-17.438-0.858-32.537-1.853-44.46
	l0.223,0.097v-0.097h28.359V39.27c10.055-12.391,26.128-22.055,53.861-22.055c33.973,0,52.826,21.215,52.826,51.259v42.334
	l-26.757,0.002V71.987c0-21.448-11.668-32.313-33.923-32.313c-24.039,0-46.008,14.481-46.008,41.232v29.903H518.196z"/>
</svg>
